<svg width="31" height="30" viewBox="0 0 31 30" fill="none" xmlns="http://www.w3.org/2000/svg">
<path d="M15.2683 21C11.9546 21 9.26828 18.3137 9.26828 15C9.26828 11.6863 11.9546 9 15.2683 9C18.582 9 21.2683 11.6863 21.2683 15C21.2683 18.3137 18.582 21 15.2683 21Z" fill="#0B251C"/>
<path d="M3.64451 17.0496C1.90576 17.3562 0.713939 19.0358 1.38139 20.6704C2.31323 22.9524 3.79986 24.9856 5.72717 26.5744C8.48308 28.8461 11.9591 30.06 15.5301 29.9977C19.1011 29.9354 22.5327 28.6009 25.2077 26.2343C27.0783 24.5793 28.4931 22.4954 29.3448 20.1823C29.9548 18.5254 28.705 16.8884 26.9566 16.6427C25.2083 16.397 23.6385 17.6696 22.7749 19.2096C22.3068 20.0443 21.6991 20.8016 20.9711 21.4457C19.4363 22.8036 17.4674 23.5692 15.4186 23.605C13.3697 23.6407 11.3753 22.9443 9.79408 21.6408C9.04398 21.0225 8.41028 20.2869 7.9133 19.469C6.99651 17.9601 5.38326 16.743 3.64451 17.0496Z" fill="#0B251C"/>
<path d="M30.1523 16.8745C30.2289 16.2604 30.2683 15.6348 30.2683 15C30.2683 6.71573 23.5526 0 15.2683 0C6.98401 0 0.26828 6.71573 0.26828 15C0.26828 15.8147 0.33323 16.6142 0.45824 17.3937C1.14722 16.4505 2.22254 15.7772 3.38404 15.5724C4.64073 15.3508 5.78286 15.6556 6.74855 16.2253C6.6915 15.8251 6.66198 15.416 6.66198 15C6.66198 10.2469 10.5152 6.3937 15.2683 6.3937C20.0214 6.3937 23.8746 10.2469 23.8746 15C23.8746 15.3134 23.8578 15.6229 23.8252 15.9276C24.7705 15.3243 25.9015 14.9796 27.1654 15.1573C28.333 15.3214 29.4308 15.9564 30.1523 16.8745Z" fill="#0B251C"/>
</svg>
